<svg id="Capa_1" enable-background="new 0 0 512 512" height="512" viewBox="0 0 512 512" width="512" xmlns="http://www.w3.org/2000/svg"><g><path d="m461.418 120.8v377.509c0 7.561-6.129 13.69-13.69 13.69h-25.691v-360.941z" fill="#fef0ae"/><path d="m461.423 120.801v377.51c0 7.554-6.136 13.69-13.689 13.69h-21.747c7.554 0 13.689-6.136 13.689-13.69v-360.799z" fill="#fee97d"/><path d="m422.037 111.676v144.324l39.381-30.258v-114.066z" fill="#b0e7c9"/><path d="m461.423 111.674v114.069l-20.72 15.92v-129.989z" fill="#91deb6"/><path d="m422.037 511.998h-329.313c-7.561 0-13.69-6.129-13.69-13.69v-484.616c0-7.561 6.129-13.69 13.69-13.69h355.004c7.561 0 13.69 6.129 13.69 13.69v107.108l-39.381 30.258z" fill="#f9f3f1"/><path d="m461.423 13.689v107.111l-39.383 30.257v360.943h-21.747v-371.18c0-5.17 2.403-10.046 6.503-13.196l26.378-20.265c4.1-3.15 6.503-8.026 6.503-13.196v-80.473c0-7.554-6.136-13.69-13.689-13.69h21.747c7.559 0 13.688 6.129 13.688 13.689z" fill="#efe2dd"/><path d="m153.258 511.998h-60.534c-7.561 0-13.69-6.129-13.69-13.69v-484.616c0-7.561 6.129-13.69 13.69-13.69h60.534z" fill="#fd9468"/><path d="m132.7 0h20.555v512h-20.555z" fill="#fe7d43"/><g fill="#acacac"><path d="m92.619 83.814h-25.544c-9.111 0-16.497-7.386-16.497-16.497 0-9.111 7.386-16.497 16.497-16.497h25.545c9.111 0 16.497 7.386 16.497 16.497 0 9.111-7.386 16.497-16.498 16.497z"/><path d="m92.619 178.542h-25.544c-9.111 0-16.497-7.386-16.497-16.497 0-9.111 7.386-16.497 16.497-16.497h25.545c9.111 0 16.497 7.386 16.497 16.497 0 9.111-7.386 16.497-16.498 16.497z"/><path d="m92.619 273.269h-25.544c-9.111 0-16.497-7.386-16.497-16.497 0-9.111 7.386-16.497 16.497-16.497h25.545c9.111 0 16.497 7.386 16.497 16.497 0 9.111-7.386 16.497-16.498 16.497z"/><path d="m92.619 367.997h-25.544c-9.111 0-16.497-7.386-16.497-16.497 0-9.111 7.386-16.497 16.497-16.497h25.545c9.111 0 16.497 7.386 16.497 16.497 0 9.111-7.386 16.497-16.498 16.497z"/><path d="m92.619 462.724h-25.544c-9.111 0-16.497-7.386-16.497-16.497 0-9.111 7.386-16.497 16.497-16.497h25.545c9.111 0 16.497 7.386 16.497 16.497 0 9.111-7.386 16.497-16.498 16.497z"/></g><g fill="#9c9c9c"><path d="m109.113 67.317c0 4.553-1.85 8.684-4.83 11.665-2.98 2.98-7.112 4.83-11.665 4.83h-20.555c4.553 0 8.684-1.85 11.665-4.83 2.98-2.98 4.83-7.112 4.83-11.665 0-9.116-7.379-16.495-16.495-16.495h20.555c9.116 0 16.495 7.379 16.495 16.495z"/><path d="m109.113 162.044c0 4.563-1.85 8.684-4.83 11.665-2.98 2.991-7.112 4.83-11.665 4.83h-20.555c4.553 0 8.684-1.84 11.665-4.83 2.98-2.98 4.83-7.102 4.83-11.665 0-9.116-7.379-16.495-16.495-16.495h20.555c9.116 0 16.495 7.379 16.495 16.495z"/><path d="m109.113 256.771c0 4.553-1.85 8.684-4.83 11.665-2.98 2.98-7.112 4.83-11.665 4.83h-20.555c4.553 0 8.684-1.85 11.665-4.83s4.83-7.112 4.83-11.665c0-9.106-7.379-16.495-16.495-16.495h20.555c9.116 0 16.495 7.389 16.495 16.495z"/><path d="m109.113 351.498c0 4.563-1.85 8.684-4.83 11.665-2.98 2.991-7.112 4.83-11.665 4.83h-20.555c4.553 0 8.684-1.84 11.665-4.83 2.98-2.98 4.83-7.102 4.83-11.665 0-9.106-7.379-16.495-16.495-16.495h20.555c9.116-.001 16.495 7.389 16.495 16.495z"/><path d="m109.113 446.225c0 4.553-1.85 8.684-4.83 11.665s-7.112 4.83-11.665 4.83h-20.555c4.553 0 8.684-1.85 11.665-4.83 2.98-2.98 4.83-7.112 4.83-11.665 0-9.106-7.379-16.495-16.495-16.495h20.555c9.116-.001 16.495 7.389 16.495 16.495z"/></g><g><path d="m372.441 195.11c0 28.776-14.335 54.204-36.253 69.534-1.036.725-2.09-.679-3.159 0-13.122 8.33-28.688 12.521-45.381 12.521-15.803 0-29.781-3.855-42.446-11.383-1.8-1.07-4.372.066-6.083-1.131-21.924-15.328-36.263-40.76-36.263-69.541 0-46.83 37.963-84.793 84.793-84.793s84.792 37.963 84.792 84.793z" fill="#8ac9fe"/><path d="m372.441 195.106c0 28.779-14.335 54.208-36.252 69.538-.965.675-3.258-.864-4.252-.229-13.167 8.417-27.5 12.749-44.285 12.749-13.823 0-26.875-3.262-38.407-9.13 6.125 1.398 12.487 4.831 19.034 4.831 46.824 0 84.789-37.965 84.789-84.789 0-33.011-18.859-61.613-46.382-75.611 37.656 8.634 65.755 42.364 65.755 82.641z" fill="#60b7ff"/><path d="m336.19 264.647c-13.748 9.611-30.495 15.259-48.545 15.259s-34.775-5.637-48.523-15.259c.558-4.685 1.412-9.019 2.485-13.048 12.621-47.166 79.468-47.166 92.077 0 1.083 4.028 1.926 8.363 2.506 13.048z" fill="#fef0ae"/><path d="m317.95 274.325c.144-.093.277-.185.421-.288-.637-5.098-1.552-9.815-2.723-14.193-6.855-25.601-28.376-38.427-49.948-38.479 24.717-12.415 59.28-2.333 67.985 30.236 1.079 4.029 1.922 8.356 2.508 13.042-5.622 3.926-11.737 7.194-18.243 9.682z" fill="#fee97d"/><circle cx="287.648" cy="189.87" fill="#fef0ae" r="35.625"/><path d="m323.274 189.865c0 19.681-15.951 35.632-35.621 35.632-10.945 0-20.74-4.933-27.276-12.703 3.124.894 6.434 1.377 9.846 1.377 19.681 0 35.632-15.951 35.632-35.632 0-8.726-3.145-16.721-8.356-22.919 14.881 4.276 25.775 17.986 25.775 34.245z" fill="#fee97d"/></g></g></svg>